<svg width="58" height="58" viewBox="0 0 58 58" fill="none" xmlns="http://www.w3.org/2000/svg">
<path fill-rule="evenodd" clip-rule="evenodd" d="M9.12037 21.4528C9.52235 16.5947 11.7358 12.0651 15.3215 8.7628C18.9072 5.46046 23.6032 3.62659 28.4779 3.625H29.5219C34.3966 3.62659 39.0926 5.46046 42.6783 8.7628C46.264 12.0651 48.4774 16.5947 48.8794 21.4528C49.3254 26.8767 47.6509 32.2624 44.208 36.4772L32.6249 50.6437C32.1858 51.181 31.6329 51.614 31.0059 51.9114C30.379 52.2087 29.6938 52.363 28.9999 52.363C28.306 52.363 27.6208 52.2087 26.9938 51.9114C26.3669 51.614 25.8139 51.181 25.3749 50.6437L13.7942 36.4772C10.3504 32.2627 8.67497 26.8771 9.12037 21.4528ZM28.9999 15.1042C29.4806 15.1042 29.9416 15.2951 30.2815 15.635C30.6214 15.9749 30.8124 16.436 30.8124 16.9167V21.75H35.6457C36.1264 21.75 36.5874 21.941 36.9273 22.2809C37.2672 22.6208 37.4582 23.0818 37.4582 23.5625C37.4582 24.0432 37.2672 24.5042 36.9273 24.8441C36.5874 25.184 36.1264 25.375 35.6457 25.375H30.8124V30.2083C30.8124 30.689 30.6214 31.1501 30.2815 31.49C29.9416 31.8299 29.4806 32.0208 28.9999 32.0208C28.5192 32.0208 28.0582 31.8299 27.7182 31.49C27.3783 31.1501 27.1874 30.689 27.1874 30.2083V25.375H22.354C21.8733 25.375 21.4123 25.184 21.0724 24.8441C20.7325 24.5042 20.5415 24.0432 20.5415 23.5625C20.5415 23.0818 20.7325 22.6208 21.0724 22.2809C21.4123 21.941 21.8733 21.75 22.354 21.75H27.1874V16.9167C27.1874 16.436 27.3783 15.9749 27.7182 15.635C28.0582 15.2951 28.5192 15.1042 28.9999 15.1042Z" fill="black"/>
</svg>
